<svg width="349" height="241" viewBox="0 0 349 241" fill="none" xmlns="http://www.w3.org/2000/svg">
<path d="M347.911 187.387C347.659 187.357 347.404 187.426 347.203 187.581C347.001 187.736 346.869 187.964 346.834 188.216C346.873 188.466 347.006 188.691 347.207 188.845C347.407 189 347.659 189.071 347.911 189.044C348.617 189.044 348.988 188.609 348.988 188.232C348.95 187.981 348.817 187.754 348.617 187.597C348.417 187.44 348.164 187.365 347.911 187.387Z" fill="black"/>
<path d="M344.782 186.215C344.588 186.215 344.481 186.306 344.481 186.543C344.481 186.667 344.54 186.785 344.54 186.909C344.472 187.396 344.227 187.842 343.851 188.161C343.476 188.48 342.997 188.651 342.504 188.641C341.529 188.641 340.528 188.006 340.528 185.472C340.491 183.84 340.917 182.231 341.756 180.83C342.294 180.087 342.682 179.969 342.94 179.969C343.404 179.969 343.851 180.329 343.851 181.233C343.851 181.927 343.673 182.594 343.673 183.288C343.673 183.826 343.926 184.057 344.271 184.057C344.513 184.057 344.658 183.966 344.734 183.632C344.802 183.278 344.827 182.917 344.809 182.556C344.809 181.018 344.481 180.507 344.044 180.098C343.562 179.751 343.046 179.454 342.504 179.21C342.315 179.108 342.105 179.051 341.89 179.043C341.395 179.043 341.217 179.345 340.781 180.006C339.869 181.471 339.374 183.156 339.348 184.88C339.348 186.661 339.887 187.699 340.56 188.302C341.069 188.782 341.744 189.048 342.445 189.044C343.109 189.06 343.756 188.825 344.255 188.387C344.754 187.948 345.069 187.338 345.138 186.677C345.127 186.311 344.96 186.215 344.782 186.215Z" fill="black"/>
<path d="M338.179 188.054C338.087 188.054 338.028 188.13 337.936 188.13C337.845 188.13 337.683 188.098 337.516 187.479C337.393 186.919 337.348 186.345 337.382 185.773C337.382 185.139 337.382 184.488 337.382 183.858C337.436 183.058 337.367 182.254 337.177 181.475C336.951 180.84 336.574 180.641 336.321 180.641C336.068 180.641 335.707 180.781 335.362 181.411C335.276 181.593 334.705 182.788 334.107 186.333C334.032 186.693 333.983 187.054 333.94 187.409C333.897 187.662 333.881 187.737 333.838 187.769C333.827 187.783 333.813 187.794 333.797 187.801C333.781 187.809 333.764 187.812 333.746 187.812C333.671 187.812 333.579 187.812 333.579 187.344C333.579 187.032 333.687 184.95 334.048 182.309C334.098 181.795 334.188 181.286 334.317 180.786C334.36 180.679 334.452 180.587 334.452 180.453C334.452 180.318 334.242 179.969 333.509 179.969C333.132 179.969 333.073 180.076 333.073 180.179C333.073 180.378 333.149 180.544 333.149 180.717C333.106 181.748 333 182.776 332.831 183.794C332.667 184.851 332.577 185.919 332.562 186.989C332.562 188.964 333.1 189.141 333.418 189.141C333.612 189.141 333.956 189.023 334.183 188.119C334.244 187.861 334.284 187.598 334.301 187.334C334.899 183.53 335.319 182.443 335.481 182.04C335.739 181.421 335.884 181.421 335.96 181.421C336.035 181.421 336.159 181.48 336.229 181.723C336.289 182.02 336.311 182.324 336.294 182.626C336.294 183.111 336.294 183.589 336.294 184.073C336.294 186.968 336.682 187.603 336.832 187.839C336.944 188.02 337.095 188.173 337.274 188.287C337.453 188.402 337.656 188.475 337.866 188.501C338.184 188.501 338.303 188.35 338.303 188.264C338.312 188.243 338.316 188.219 338.315 188.195C338.313 188.171 338.306 188.148 338.294 188.128C338.282 188.107 338.265 188.09 338.245 188.077C338.225 188.065 338.202 188.057 338.179 188.054Z" fill="black"/>
<path d="M330.844 184.009C330.602 184.009 330.634 184.224 330.558 184.359C330.483 184.493 330.408 184.687 329.481 185.112C329.981 183.496 330.223 181.811 330.198 180.119C330.237 178.344 329.933 176.578 329.304 174.917C328.641 173.497 327.952 173.212 327.338 173.212C326.724 173.212 325.722 173.454 324.273 176.031C323.339 177.6 322.818 179.381 322.76 181.206C322.76 183.014 323.417 184.224 324.273 184.929C325.198 185.629 326.347 185.968 327.505 185.881C327.096 186.958 326.439 187.924 325.587 188.7C324.875 189.336 323.952 189.687 322.997 189.685C320.751 189.685 319.313 188.146 319.313 186.317C319.323 185.92 319.399 185.527 319.539 185.155C319.597 185.025 319.643 184.89 319.674 184.751C319.677 184.719 319.673 184.687 319.663 184.656C319.652 184.626 319.635 184.598 319.612 184.575C319.59 184.552 319.562 184.534 319.532 184.523C319.502 184.511 319.469 184.507 319.437 184.509C319.329 184.509 318.898 184.601 318.898 186.198C318.898 188.35 320.751 190.362 323.509 190.362C325.754 190.362 328.162 188.867 329.347 185.521C330.785 185.069 331.054 184.375 331.054 184.235C331.053 184.178 331.031 184.124 330.992 184.082C330.953 184.04 330.901 184.014 330.844 184.009ZM327.666 185.488C325.453 185.564 323.686 184.025 323.686 181.023C323.686 178.247 325.394 173.605 327.279 173.605C327.715 173.605 328.253 173.814 328.673 175.143C328.906 176.109 329 177.104 328.954 178.097C328.981 180.617 328.553 183.121 327.688 185.488H327.666Z" fill="black"/>
<path d="M13.7012 157.04L0 189.206H7.16841L10.0928 182.04H23.6109L26.5354 189.206H33.8922L20.1856 157.04H13.7012ZM12.6241 175.837L16.8733 165.481L21.1227 175.837H12.6241Z" fill="white"/>
<path d="M44.7227 157.266H37.6836V189.2H60.659V182.815H44.7227V157.266Z" fill="white"/>
<path d="M89.1598 182.955H71.7963V176.246H86.8709V169.995H71.7963V163.518H88.9282V157.266H64.811V189.2H89.1598V182.955Z" fill="white"/>
<path d="M120.936 167.897V167.805C120.936 164.798 119.977 162.286 118.2 160.505C116.094 158.407 112.949 157.277 108.883 157.277H94.2661V189.217H101.3V178.995H106.825L113.676 189.217H121.9L114.085 177.812C118.152 176.295 120.936 173.051 120.936 167.897ZM113.811 168.263C113.811 170.952 111.85 172.782 108.425 172.782H101.3V163.609H108.301C111.726 163.609 113.827 165.164 113.827 168.171L113.811 168.263Z" fill="white"/>
<path d="M140.621 189.206V163.743H150.347V157.266H123.86V163.743H133.587V189.206H140.621Z" fill="white"/>
<path d="M153.045 178.78C154.298 178.784 155.502 178.291 156.392 177.41C157.281 176.528 157.784 175.33 157.79 174.078V174.013C157.788 173.393 157.663 172.779 157.424 172.207C157.184 171.635 156.834 171.115 156.394 170.678C155.953 170.241 155.43 169.895 154.856 169.659C154.281 169.424 153.666 169.304 153.045 169.306C151.792 169.303 150.589 169.797 149.7 170.68C148.812 171.563 148.31 172.762 148.306 174.013V174.078C148.308 174.698 148.432 175.311 148.671 175.882C148.911 176.454 149.26 176.973 149.7 177.409C150.141 177.846 150.663 178.192 151.236 178.427C151.81 178.662 152.425 178.782 153.045 178.78Z" fill="white"/>
<path d="M162.794 173.239V173.33C162.794 182.406 169.876 189.755 179.743 189.755C189.609 189.755 196.778 182.314 196.778 173.239V173.147C196.778 164.066 189.701 156.723 179.834 156.723C169.968 156.723 162.794 164.158 162.794 173.239ZM189.426 173.239V173.33C189.426 178.801 185.495 183.272 179.834 183.272C174.174 183.272 170.14 178.71 170.14 173.239V173.147C170.14 167.671 174.066 163.2 179.732 163.2C185.398 163.2 189.426 167.762 189.426 173.239Z" fill="white"/>
<path d="M206.752 169.306C206.131 169.304 205.516 169.424 204.942 169.66C204.367 169.895 203.845 170.241 203.405 170.678C202.965 171.116 202.615 171.635 202.376 172.207C202.137 172.78 202.014 173.393 202.012 174.013V174.078C202.014 174.698 202.139 175.311 202.378 175.882C202.617 176.454 202.967 176.973 203.407 177.409C203.847 177.846 204.369 178.192 204.943 178.427C205.517 178.662 206.131 178.782 206.752 178.78C208.005 178.784 209.208 178.291 210.098 177.41C210.988 176.528 211.491 175.33 211.496 174.078V174.013C211.494 173.393 211.37 172.779 211.13 172.207C210.891 171.635 210.541 171.115 210.1 170.678C209.659 170.241 209.137 169.895 208.562 169.659C207.988 169.424 207.373 169.304 206.752 169.306Z" fill="white"/>
<path d="M224.508 157.266H217.475V189.2H240.45V182.815H224.508V157.266Z" fill="white"/>
<path d="M251.96 157.266H244.926V189.206H251.96V157.266Z" fill="white"/>
<path d="M256.521 163.743H266.248V189.206H273.281V163.743H283.013V157.266H256.521V163.743Z" fill="white"/>
<path d="M294.243 176.246H309.317V169.995H294.243V163.518H311.375V157.266H287.257V189.2H311.601V182.955H294.243V176.246Z" fill="white"/>
<path d="M243.859 231.792C242.674 231.485 241.883 232.168 241.522 233.271C241.306 233.944 242.141 234.977 242.448 235.154C242.678 235.28 242.932 235.356 243.194 235.375C243.456 235.394 243.718 235.356 243.964 235.265C244.21 235.174 244.433 235.03 244.619 234.845C244.804 234.66 244.947 234.437 245.039 234.191C245.126 233.957 245.165 233.707 245.152 233.457C245.14 233.207 245.076 232.963 244.966 232.738C244.856 232.513 244.701 232.314 244.51 232.151C244.32 231.988 244.098 231.866 243.859 231.792ZM243.019 234.961C242.796 234.895 242.592 234.777 242.424 234.617C242.256 234.456 242.128 234.258 242.053 234.038C241.977 233.818 241.956 233.584 241.99 233.354C242.024 233.124 242.113 232.906 242.249 232.717C242.345 232.561 242.474 232.426 242.626 232.323C242.778 232.22 242.951 232.15 243.132 232.118C243.314 232.087 243.5 232.094 243.678 232.14C243.856 232.186 244.023 232.269 244.166 232.384C244.433 232.567 244.624 232.84 244.705 233.153C244.888 234.283 244.15 235.235 243.019 234.961Z" fill="#D40C31"/>
<path d="M183.001 210.875C183.895 210.338 184.824 209.858 185.78 209.439L183.281 203.731C183.281 203.731 181.552 204.393 180.626 204.872C179.549 205.41 178.547 206.609 177.518 207.777C175.488 210.085 158.959 232.185 158.959 232.185L167.549 205.286C167.549 205.286 147.848 204.952 144.331 205.151C141.973 205.286 138.025 205.727 136.436 207.793C135.767 208.74 135.337 209.834 135.181 210.983C135.181 211.489 135.181 212.145 135.181 212.145H141.698C142.059 212.145 142.118 212.145 142.323 211.919C142.65 211.634 143.033 211.422 143.448 211.295C143.682 211.236 143.924 211.213 144.164 211.225H159.454C159.454 211.225 153.191 230.963 152.62 233.653C151.979 236.607 152.27 238.942 155.313 239.991C158.356 241.04 160.936 239.135 162.907 236.822C164.479 234.977 179.182 215.653 181.536 212.344C181.936 211.774 182.432 211.278 183.001 210.875Z" fill="#D40C31"/>
<path d="M145.619 229.748C144.838 230.286 143.12 231.076 142.263 230.867C141.832 230.741 141.409 230.586 140.998 230.404C140.998 230.404 143.615 228.349 145.155 226.907C146.233 225.906 149.889 221.253 149.464 218.725C149.29 217.972 148.943 217.271 148.45 216.676C147.958 216.081 147.333 215.609 146.626 215.298C144.606 214.442 142.57 215.034 140.744 216.551C138.639 218.305 136.253 222.216 135.795 224.798C135.165 228.322 135.978 228.747 133.479 229.877C132.709 230.232 130.91 230.512 130.576 229.592C130.541 229.483 130.541 229.366 130.576 229.258C130.759 228.376 136.651 216.885 136.651 216.885H130.727C130.727 216.885 127.13 224.89 125.907 226.912C125.438 227.698 123.553 230.501 122.676 229.683C122.11 229.145 122.482 228.376 122.875 227.44C124.329 223.991 128.093 216.885 128.093 216.885H122.632C122.632 216.885 119.53 223.34 118.119 225.594C117.311 226.875 115.313 229.516 113.773 229.818C113.11 229.947 112.847 229.753 112.771 229.226C112.774 228.828 112.888 228.439 113.1 228.101C114.715 224.723 118.582 216.885 118.582 216.885H111.446V215.9L107.445 213.361L97.0503 233.444L101.138 235.983L109.335 221.226H111.053L106.33 231.448C106.205 231.679 106.138 231.938 106.136 232.201C106.007 233.987 106.572 235.106 108.145 235.698C110.342 236.531 112.604 235.466 115.146 233.852C115.884 233.384 116.762 232.776 116.762 232.776C116.913 233.299 117.093 233.812 117.301 234.315C118.577 237.123 122.417 235.929 124.894 234.25C125.568 233.793 126.397 233.175 126.397 233.175C126.397 233.175 126.58 233.879 126.742 234.326C127.566 236.564 130.565 236.225 132.666 235.445C134.099 234.907 136.565 233.664 136.565 233.664C137.005 234.105 137.467 234.524 137.949 234.918C140.201 236.671 142.484 235.994 144.951 234.918C145.756 234.56 146.53 234.137 147.267 233.653C148.225 233.056 149.55 232.179 149.55 232.179L147.934 228.112C147.934 228.112 146.48 229.161 145.619 229.748ZM140.599 224.906C140.513 224.906 140.545 224.761 140.599 224.594C140.917 223.561 142.468 220.43 143.507 219.698C143.981 219.354 144.547 219.225 144.692 219.365C145.123 219.784 144.202 221.355 143.572 222.135C142.76 223.038 141.893 223.89 140.976 224.685C140.87 224.793 140.741 224.876 140.599 224.927V224.906Z" fill="#D40C31"/>
<path d="M239.675 220.247C239.675 218.186 238.124 216.524 236.373 215.76C234.219 214.813 231.418 215.911 229.636 217.605C227.749 219.645 226.388 222.114 225.672 224.798C225.36 226.261 225.133 228.602 224.816 229.021C224.212 229.823 221.703 231.017 220.852 229.941C220.313 229.263 220.884 228.29 221.245 227.434C222.5 224.47 226.598 216.879 226.598 216.879H221.137C221.137 216.879 217.028 225.342 215.832 227.171C215.294 228.037 214.367 229.21 213.489 229.414C212.897 229.554 212.665 229.29 212.595 228.822C212.703 228.1 212.95 227.406 213.323 226.778C215.17 223.292 218.407 216.879 218.407 216.879H212.827C212.827 216.879 209.596 223.136 207.84 225.917C206.45 228.15 205.26 229.269 203.219 229.812C202.8 229.931 202.356 229.931 201.937 229.812C201.562 229.645 201.202 229.447 200.86 229.22C200.86 229.22 202.093 228.096 203.014 227.171C206.897 223.373 212.671 215.335 213.247 209.568C213.57 206.394 211.75 203.844 208.599 204.188C202.179 204.936 197.779 214.41 196.406 219.494C196.072 220.742 195.83 222.022 195.55 223.319C195.311 224.279 195.177 225.262 195.151 226.251C195.232 227.741 195.437 227.8 194.489 228.532C193.649 229.183 190.676 231.517 189.539 230.049C189.001 229.344 189.588 228.236 189.932 227.407C191.279 224.179 195.151 216.852 195.151 216.852H190.352C189.992 216.852 189.938 216.852 189.814 217.051C189.189 217.799 189.275 217.191 187.773 216.39C185.995 215.437 183.049 216.282 181.568 217.186C177.26 219.817 173.684 225.567 174.028 230.339C174.271 233.616 176.183 236.219 179.441 235.988C180.082 235.948 180.71 235.792 181.294 235.525C182.584 234.881 183.828 234.148 185.015 233.33C185.26 233.885 185.539 234.424 185.85 234.944C186.421 235.767 188.306 236.101 189.297 236.02C190.265 235.893 191.215 235.649 192.124 235.294C193.487 234.628 194.813 233.892 196.099 233.088C196.099 233.088 196.638 233.987 196.998 234.53C198.237 236.327 200.311 236.311 202.492 235.606C203.126 235.411 203.726 235.123 204.275 234.751C205.422 234.008 207.242 232.599 207.242 232.599C207.363 233.171 207.52 233.735 207.711 234.288C208.001 234.869 208.464 235.347 209.037 235.654C209.61 235.961 210.264 236.084 210.91 236.004C211.642 235.908 212.345 235.656 212.972 235.267C214.168 234.514 216.586 232.464 216.586 232.464C216.586 232.464 216.732 232.97 216.872 233.352C217.172 234.197 217.748 234.916 218.507 235.395C219.266 235.874 220.163 236.085 221.056 235.993C221.781 235.908 222.486 235.707 223.146 235.396C224.519 234.804 226.55 233.669 226.55 233.669C226.55 233.669 227.476 234.616 228.031 235.068C229.061 235.772 230.304 236.099 231.548 235.993C233.136 235.818 234.678 235.347 236.093 234.605C237.17 233.998 238.905 232.884 238.905 232.884L237.73 228.51C237.73 228.51 236.955 229.048 236.357 229.462C235.204 230.265 233.899 230.825 232.523 231.109C232.394 231.144 232.258 231.144 232.129 231.109C231.72 230.974 231.322 230.807 230.939 230.608C230.939 230.608 232.102 229.71 233.056 228.935C234.801 227.531 239.696 223.211 239.675 220.247ZM182.586 229.086C181.827 229.774 180.039 230.915 179.215 229.812C178.208 228.456 180.615 224.787 181.197 224.007C182.22 222.641 184.364 220.172 185.888 221.167C186.154 221.351 186.345 221.624 186.426 221.936C186.771 224.163 183.61 228.171 182.608 229.086H182.586ZM201.436 219.402C201.668 218.784 201.781 218.326 201.975 217.821C202.648 215.965 205.012 211.822 206.919 210.477C207.501 210.068 207.953 210.224 208.12 210.87C208.373 211.865 207.102 214.205 206.666 214.985C206.203 215.824 205.696 216.638 205.147 217.423C204.382 218.498 203.639 219.187 202.503 220.855C202.147 221.393 200.93 222.544 200.855 222.436C200.779 222.329 201.151 220.145 201.431 219.386L201.436 219.402ZM230.169 225.433C230.051 225.379 230.918 223.367 231.289 222.835C232.329 221.355 232.797 219.929 234.607 219.537C235.145 219.424 235.35 219.989 235.188 220.548C234.795 221.904 233.96 222.367 232.808 223.561C232.312 224.056 230.298 225.481 230.164 225.417L230.169 225.433Z" fill="#D40C31"/>
<path d="M116.88 211.209L119.993 205.291C119.993 205.291 96.6674 205.065 92.418 205.291C89.9191 205.42 87.8134 205.641 85.7776 206.937C84.9805 207.475 83.8494 208.299 83.8494 208.299L86.8977 212.812C86.8977 212.812 88.1041 212.156 88.9497 211.822C89.9614 211.5 91.0085 211.301 92.068 211.231C94.1631 211.064 98.0623 211.231 98.0623 211.231C98.0623 211.231 88.438 230.06 87.6894 231.023C87.2284 231.674 86.6362 232.221 85.9507 232.63C85.2653 233.038 84.5018 233.299 83.7094 233.395C82.4792 233.512 81.2383 233.438 80.0309 233.175C79.6216 233.519 77.6235 238.301 77.6235 238.301C77.6235 238.301 80.9034 239.06 82.4707 239.2C85.2389 239.458 88.7827 238.339 90.6569 236.628C91.7185 235.61 92.6112 234.43 93.3014 233.132C96.1289 228.29 104.924 211.231 104.924 211.231L116.88 211.209Z" fill="#D40C31"/>
<path d="M243.768 233.772C243.765 233.727 243.765 233.682 243.768 233.637H244.032V233.508H244.166V233.035C244.166 232.825 244.166 232.798 244.129 232.744C244.001 232.601 243.824 232.511 243.633 232.491C243.472 232.457 243.307 232.445 243.143 232.454H242.604V234.562H242.998V233.772C243.103 233.751 243.21 233.751 243.315 233.772C243.606 233.847 243.649 234.267 243.822 234.455C243.913 234.552 244.123 234.632 244.188 234.562C244.252 234.493 244.188 234.444 244.15 234.369C244.021 234.191 243.795 234.041 243.768 233.772ZM242.976 233.374V232.836H243.768V233.374H242.976Z" fill="#D40C31"/>
<path d="M110.181 117.09C113.137 120.28 116.382 123.191 119.875 125.784C123.74 128.645 127.892 131.098 132.262 133.106C136.602 135.106 141.138 136.651 145.797 137.716C150.91 138.882 156.138 139.47 161.383 139.47C165.277 139.471 169.165 139.147 173.005 138.502C186.4 136.239 198.84 130.113 208.793 120.878C211.987 117.926 214.899 114.684 217.491 111.194C220.356 107.333 222.814 103.186 224.826 98.8207C226.825 94.4862 228.372 89.9577 229.442 85.3067C230.61 80.1975 231.197 74.973 231.192 69.7324C231.195 65.8443 230.872 61.9628 230.228 58.1283C227.965 44.7476 221.832 32.3209 212.585 22.3798C209.629 19.1893 206.383 16.279 202.89 13.6861C199.025 10.8242 194.874 8.36871 190.503 6.3589C181.371 2.15971 171.436 -0.00984192 161.383 3.35628e-05C157.488 -0.000615658 153.601 0.323303 149.76 0.968399C136.366 3.23128 123.926 9.35736 113.972 18.5924C110.779 21.5439 107.867 24.7858 105.275 28.276C102.409 32.1372 99.9511 36.2836 97.9391 40.6494C95.9357 44.982 94.3889 49.511 93.3237 54.1634C92.1558 59.2707 91.5686 64.4934 91.5733 69.7324C91.5683 73.6223 91.8907 77.5059 92.5372 81.3419C94.8047 94.721 100.937 107.147 110.181 117.09ZM161.383 4.56745C178.679 4.58596 195.263 11.4573 207.494 23.6739C219.725 35.8906 226.605 52.4547 226.625 69.7324C226.607 87.0109 219.727 103.576 207.496 115.794C195.264 128.012 178.68 134.884 161.383 134.903C144.085 134.884 127.501 128.012 115.27 115.794C103.039 103.576 96.1589 87.0109 96.1404 69.7324C96.1603 52.4547 103.041 35.8906 115.272 23.6739C127.503 11.4573 144.086 4.58596 161.383 4.56745Z" fill="black"/>
<path d="M161.383 134.903C178.681 134.884 195.265 128.012 207.496 115.794C219.727 103.576 226.607 87.0109 226.625 69.7323C226.605 52.4547 219.725 35.8905 207.494 23.6739C195.263 11.4573 178.68 4.58595 161.383 4.56744C144.086 4.58595 127.503 11.4573 115.272 23.6739C103.041 35.8905 96.1606 52.4547 96.1406 69.7323C96.1592 87.0109 103.039 103.576 115.27 115.794C127.501 128.012 144.085 134.884 161.383 134.903ZM198.814 34.5811C199.229 33.5988 199.511 32.5658 199.654 31.5092C204.688 36.524 208.682 42.4814 211.407 49.0404C214.132 55.5993 215.536 62.6309 215.536 69.7323C215.516 84.0727 209.805 97.82 199.653 107.96C189.502 118.1 175.739 123.806 161.383 123.826C148.033 123.827 135.156 118.89 125.234 109.967C126.197 110.397 127.207 110.71 128.245 110.898C134.891 112.431 139.587 110.844 143.987 106.594C145.851 104.835 150.606 98.4602 151.581 96.3729C154.096 91.3643 157.877 82.2456 158.119 82.0412C158.27 82.0143 173.038 81.5463 173.038 81.5463C173.038 81.5463 172.914 81.9121 172.704 82.5146C170.221 89.6589 168.934 95.6789 161.13 97.7286L159.606 98.132L155.496 108.612L185.333 106.896L189.362 96.6203H189.276H189.076C176.797 95.921 183.933 81.3096 185.974 74.1222C187.73 67.9301 189.513 61.3346 191.107 56.6542C192.722 51.7532 195.033 45.0823 196.896 39.6542C197.575 37.6906 198.254 36.0067 198.814 34.6026V34.5811ZM160.791 71.8574L163.553 64.5463C164.884 61.0225 166.327 57.5257 167.162 55.8149C167.474 55.1532 167.911 54.2602 168.444 53.2434C171.298 47.1266 174.503 42.9197 177.373 40.0577C180.244 37.1956 181.811 36.238 184.326 34.9845C189.055 32.6174 186.971 36.1358 185.252 41.4887C183.039 48.3963 176.178 71.2602 176.178 71.2602L160.791 71.8574ZM161.383 15.6443C173.565 15.6432 185.389 19.7553 194.936 27.313C193.859 27.27 192.642 27.313 191.441 27.4045C173.167 28.545 165.589 39.552 157.888 54.6099C156.073 58.1659 154.258 61.9586 149.438 72.2339L149.362 72.3899L138.214 72.9763L134.228 83.2248L144.332 82.8213L144.176 83.1548C141.682 88.0719 139.264 92.3596 136.954 95.383C136.48 95.921 135.952 96.4589 135.822 96.432C135.359 96.4751 135.138 95.9694 134.961 95.27C133.517 89.6051 127.588 87.1143 122.45 89.9763C121.301 90.6212 120.311 91.5145 119.552 92.5909C117.549 95.4422 117.489 99.5146 118.669 102.942C111.257 93.4548 107.231 81.7662 107.23 69.7323C107.251 55.3929 112.964 41.647 123.115 31.508C133.266 21.369 147.028 15.6643 161.383 15.6443Z" fill="#FDEE19"/>
<path d="M119.552 92.5909C120.31 91.5145 121.3 90.6212 122.449 89.9763C127.587 87.1143 133.517 89.6051 134.96 95.27C135.138 95.9694 135.359 96.4751 135.822 96.432C135.951 96.432 136.479 95.9371 136.953 95.383C139.263 92.3596 141.681 88.0719 144.175 83.1548L144.331 82.8213L134.228 83.2248L138.213 72.9763L149.361 72.3899L149.437 72.2339C154.257 61.9586 156.072 58.1659 157.887 54.6099C165.578 39.5466 173.166 28.545 191.44 27.4045C192.641 27.3292 193.837 27.27 194.935 27.313C185.388 19.7553 173.564 15.6432 161.382 15.6443C147.027 15.6643 133.265 21.369 123.114 31.508C112.963 41.647 107.25 55.3929 107.229 69.7323C107.234 81.7607 111.26 93.443 118.668 102.925C117.489 99.5146 117.548 95.4422 119.552 92.5909Z" fill="black"/>
<path d="M185.974 74.1383C183.933 81.3256 176.818 95.937 189.076 96.6364H189.275H189.361L185.333 106.912L155.496 108.628L159.605 98.1481L161.13 97.7446C168.912 95.695 170.221 89.675 172.703 82.5307C172.913 81.9282 173.037 81.5624 173.037 81.5624C173.037 81.5624 158.27 82.0304 158.119 82.0573C157.877 82.2617 154.096 91.3804 151.581 96.3889C150.606 98.4548 145.85 104.83 143.987 106.61C139.587 110.85 134.89 112.437 128.244 110.914C127.207 110.726 126.196 110.413 125.234 109.984C135.155 118.906 148.033 123.843 161.383 123.842C175.742 123.822 189.507 118.114 199.659 107.97C209.81 97.8268 215.52 84.0754 215.536 69.7323C215.535 62.6308 214.132 55.5992 211.407 49.0403C208.681 42.4814 204.687 36.5239 199.654 31.5092C199.511 32.5657 199.228 33.5987 198.813 34.581C198.275 36.0066 197.575 37.6905 196.896 39.6702C195.033 45.0984 192.711 51.7693 191.106 56.6702C189.512 61.3506 187.73 67.957 185.974 74.1383Z" fill="black"/>
<path d="M185.252 41.4886C186.97 36.1357 189.054 32.6174 184.326 34.9845C181.81 36.238 180.313 37.1364 177.373 40.0576C174.432 42.9788 171.298 47.1266 168.443 53.2433C167.905 54.2601 167.474 55.1532 167.161 55.8149C166.326 57.5256 164.883 61.0225 163.553 64.5462L160.79 71.8573L176.177 71.2601C176.177 71.2601 183.038 48.3962 185.252 41.4886Z" fill="black"/>
</svg>
